<?xml version="1.0" encoding="iso-8859-1"?>
<!-- Generator: Adobe Illustrator 18.0.0, SVG Export Plug-In . SVG Version: 6.00 Build 0)  -->
<!DOCTYPE svg PUBLIC "-//W3C//DTD SVG 1.1//EN" "http://www.w3.org/Graphics/SVG/1.1/DTD/svg11.dtd">
<svg version="1.1" id="Capa_1" xmlns="http://www.w3.org/2000/svg" xmlns:xlink="http://www.w3.org/1999/xlink" x="0px" y="0px"
	 viewBox="0 0 489.234 489.234" style="enable-background:new 0 0 489.234 489.234;" xml:space="preserve">
<path d="M465.402,344.43c-15.352-15.379-35.758-23.832-57.418-23.832c-0.047,0-0.098,0-0.129,0H255.027l65.547-65.547v29.668h49.434
	v-84.113c0-44.883-36.496-81.395-81.395-81.395h-84.098v49.434h22.496l-58.363,58.375V81.395c0-44.873-36.516-81.387-81.394-81.387
	c-13.664,0-24.719,11.064-24.719,24.719S73.59,49.443,87.254,49.443c17.621,0,31.957,14.33,31.957,31.951v37.809H81.379
	c-17.605,0-31.941-14.33-31.941-31.951c0-13.654-11.059-24.717-24.719-24.717C11.055,62.535,0,73.598,0,87.252
	c0,44.873,36.516,81.385,81.379,81.385h37.832v120c0,44.883,36.516,81.395,81.394,81.395h119.969v37.777
	c-0.02,21.715,8.43,42.168,23.848,57.609c15.383,15.352,35.805,23.809,57.512,23.809c0.031,0,0.031,0,0.066,0
	c13.645-0.008,24.699-11.082,24.684-24.734c0-13.648-11.07-24.703-24.719-24.703c0,0-0.016,0-0.031,0
	c-8.527,0-16.543-3.32-22.559-9.324c-6.051-6.059-9.367-14.09-9.367-22.633v-37.801h37.879c0.02,0,0.035,0,0.051,0
	c8.496,0,16.492,3.324,22.512,9.348c6.035,6.027,9.352,14.051,9.352,22.594c0,13.656,11.055,24.719,24.715,24.719
	c13.664,0,24.719-11.063,24.719-24.719C489.234,380.227,480.785,359.789,465.402,344.43z M168.648,288.637v-26.664l93.316-93.328
	h26.648c3.281,0,6.371,0.637,9.352,1.563L170.207,297.969C169.273,295,168.648,291.902,168.648,288.637z M200.605,320.598
	c-5.23,0-10.09-1.387-14.465-3.621l130.852-130.742c2.743,4.174,3.582,9.173,3.582,14.371v19.496L220.078,320.598H200.605z"/>
<g>
</g>
<g>
</g>
<g>
</g>
<g>
</g>
<g>
</g>
<g>
</g>
<g>
</g>
<g>
</g>
<g>
</g>
<g>
</g>
<g>
</g>
<g>
</g>
<g>
</g>
<g>
</g>
<g>
</g>
</svg>
